<svg xmlns="http://www.w3.org/2000/svg" xmlns:xlink="http://www.w3.org/1999/xlink" width="100" zoomAndPan="magnify" viewBox="0 0 75 74.999997" height="100" preserveAspectRatio="xMidYMid meet" version="1.0"><path fill="#ffffff" d="M 70.832031 20.832031 L 4.167969 20.832031 C 3.894531 20.832031 3.621094 20.808594 3.355469 20.753906 C 3.085938 20.699219 2.824219 20.621094 2.570312 20.515625 C 2.320312 20.410156 2.078125 20.28125 1.851562 20.132812 C 1.625 19.980469 1.414062 19.804688 1.21875 19.613281 C 1.027344 19.417969 0.855469 19.210938 0.703125 18.980469 C 0.550781 18.753906 0.421875 18.515625 0.316406 18.261719 C 0.210938 18.007812 0.132812 17.746094 0.078125 17.480469 C 0.0273438 17.210938 0 16.941406 0 16.667969 C 0 16.394531 0.0273438 16.121094 0.078125 15.855469 C 0.132812 15.585938 0.210938 15.324219 0.316406 15.070312 C 0.421875 14.820312 0.550781 14.578125 0.703125 14.351562 C 0.855469 14.125 1.027344 13.914062 1.21875 13.71875 C 1.414062 13.527344 1.625 13.355469 1.851562 13.203125 C 2.078125 13.050781 2.320312 12.921875 2.570312 12.816406 C 2.824219 12.710938 3.085938 12.632812 3.355469 12.578125 C 3.621094 12.527344 3.894531 12.5 4.167969 12.5 L 70.832031 12.5 C 71.105469 12.5 71.378906 12.527344 71.644531 12.578125 C 71.914062 12.632812 72.175781 12.710938 72.429688 12.816406 C 72.679688 12.921875 72.921875 13.050781 73.148438 13.203125 C 73.375 13.355469 73.585938 13.527344 73.78125 13.71875 C 73.972656 13.914062 74.144531 14.125 74.296875 14.351562 C 74.449219 14.578125 74.578125 14.820312 74.683594 15.070312 C 74.789062 15.324219 74.867188 15.585938 74.921875 15.855469 C 74.972656 16.121094 75 16.394531 75 16.667969 C 75 16.941406 74.972656 17.210938 74.921875 17.480469 C 74.867188 17.746094 74.789062 18.007812 74.683594 18.261719 C 74.578125 18.515625 74.449219 18.753906 74.296875 18.980469 C 74.144531 19.210938 73.972656 19.417969 73.78125 19.613281 C 73.585938 19.804688 73.375 19.980469 73.148438 20.132812 C 72.921875 20.28125 72.679688 20.410156 72.429688 20.515625 C 72.175781 20.621094 71.914062 20.699219 71.644531 20.753906 C 71.378906 20.808594 71.105469 20.832031 70.832031 20.832031 Z M 70.832031 41.667969 L 4.167969 41.667969 C 3.894531 41.667969 3.621094 41.640625 3.355469 41.585938 C 3.085938 41.535156 2.824219 41.453125 2.570312 41.347656 C 2.320312 41.246094 2.078125 41.117188 1.851562 40.964844 C 1.625 40.8125 1.414062 40.640625 1.21875 40.445312 C 1.027344 40.253906 0.855469 40.042969 0.703125 39.816406 C 0.550781 39.585938 0.421875 39.347656 0.316406 39.09375 C 0.210938 38.839844 0.132812 38.582031 0.078125 38.3125 C 0.0273438 38.042969 0 37.773438 0 37.5 C 0 37.226562 0.0273438 36.957031 0.078125 36.6875 C 0.132812 36.417969 0.210938 36.160156 0.316406 35.90625 C 0.421875 35.652344 0.550781 35.414062 0.703125 35.183594 C 0.855469 34.957031 1.027344 34.746094 1.21875 34.554688 C 1.414062 34.359375 1.625 34.1875 1.851562 34.035156 C 2.078125 33.882812 2.320312 33.753906 2.570312 33.652344 C 2.824219 33.546875 3.085938 33.464844 3.355469 33.414062 C 3.621094 33.359375 3.894531 33.332031 4.167969 33.332031 L 70.832031 33.332031 C 71.105469 33.332031 71.378906 33.359375 71.644531 33.414062 C 71.914062 33.464844 72.175781 33.546875 72.429688 33.652344 C 72.679688 33.753906 72.921875 33.882812 73.148438 34.035156 C 73.375 34.1875 73.585938 34.359375 73.78125 34.554688 C 73.972656 34.746094 74.144531 34.957031 74.296875 35.183594 C 74.449219 35.414062 74.578125 35.652344 74.683594 35.90625 C 74.789062 36.160156 74.867188 36.417969 74.921875 36.6875 C 74.972656 36.957031 75 37.226562 75 37.5 C 75 37.773438 74.972656 38.042969 74.921875 38.3125 C 74.867188 38.582031 74.789062 38.839844 74.683594 39.09375 C 74.578125 39.347656 74.449219 39.585938 74.296875 39.816406 C 74.144531 40.042969 73.972656 40.253906 73.78125 40.445312 C 73.585938 40.640625 73.375 40.8125 73.148438 40.964844 C 72.921875 41.117188 72.679688 41.246094 72.429688 41.347656 C 72.175781 41.453125 71.914062 41.535156 71.644531 41.585938 C 71.378906 41.640625 71.105469 41.667969 70.832031 41.667969 Z M 70.832031 62.5 L 4.167969 62.5 C 3.894531 62.5 3.621094 62.472656 3.355469 62.421875 C 3.085938 62.367188 2.824219 62.289062 2.570312 62.183594 C 2.320312 62.078125 2.078125 61.949219 1.851562 61.796875 C 1.625 61.644531 1.414062 61.472656 1.21875 61.28125 C 1.027344 61.085938 0.855469 60.875 0.703125 60.648438 C 0.550781 60.421875 0.421875 60.179688 0.316406 59.929688 C 0.210938 59.675781 0.132812 59.414062 0.078125 59.144531 C 0.0273438 58.878906 0 58.605469 0 58.332031 C 0 58.058594 0.0273438 57.789062 0.078125 57.519531 C 0.132812 57.253906 0.210938 56.992188 0.316406 56.738281 C 0.421875 56.484375 0.550781 56.246094 0.703125 56.019531 C 0.855469 55.789062 1.027344 55.582031 1.21875 55.386719 C 1.414062 55.195312 1.625 55.019531 1.851562 54.867188 C 2.078125 54.71875 2.320312 54.589844 2.570312 54.484375 C 2.824219 54.378906 3.085938 54.300781 3.355469 54.246094 C 3.621094 54.191406 3.894531 54.167969 4.167969 54.167969 L 70.832031 54.167969 C 71.105469 54.167969 71.378906 54.191406 71.644531 54.246094 C 71.914062 54.300781 72.175781 54.378906 72.429688 54.484375 C 72.679688 54.589844 72.921875 54.71875 73.148438 54.867188 C 73.375 55.019531 73.585938 55.195312 73.78125 55.386719 C 73.972656 55.582031 74.144531 55.789062 74.296875 56.019531 C 74.449219 56.246094 74.578125 56.484375 74.683594 56.738281 C 74.789062 56.992188 74.867188 57.253906 74.921875 57.519531 C 74.972656 57.789062 75 58.058594 75 58.332031 C 75 58.605469 74.972656 58.878906 74.921875 59.144531 C 74.867188 59.414062 74.789062 59.675781 74.683594 59.929688 C 74.578125 60.179688 74.449219 60.421875 74.296875 60.648438 C 74.144531 60.875 73.972656 61.085938 73.78125 61.28125 C 73.585938 61.472656 73.375 61.644531 73.148438 61.796875 C 72.921875 61.949219 72.679688 62.078125 72.429688 62.183594 C 72.175781 62.289062 71.914062 62.367188 71.644531 62.421875 C 71.378906 62.472656 71.105469 62.5 70.832031 62.5 Z M 70.832031 62.5 " fill-opacity="1" fill-rule="nonzero"/></svg>