<svg xmlns="http://www.w3.org/2000/svg" xmlns:xlink="http://www.w3.org/1999/xlink" width="100" zoomAndPan="magnify" viewBox="0 0 75 74.999997" height="100" preserveAspectRatio="xMidYMid meet" version="1.0"><path fill="rgb(100%, 100%, 100%)" d="M 37.46875 74.941406 C 27.464844 74.941406 18.046875 71.046875 10.976562 63.960938 C 3.894531 56.894531 0 47.472656 0 37.46875 C 0 27.464844 3.894531 18.046875 10.976562 10.976562 C 18.046875 3.894531 27.464844 0 37.46875 0 C 47.472656 0 56.894531 3.894531 63.960938 10.976562 C 71.046875 18.0625 74.941406 27.464844 74.941406 37.46875 C 74.941406 47.472656 71.046875 56.894531 63.960938 63.960938 C 56.894531 71.046875 47.472656 74.941406 37.46875 74.941406 Z M 37.46875 2.246094 C 28.066406 2.246094 19.214844 5.914062 12.566406 12.566406 C 5.914062 19.214844 2.246094 28.066406 2.246094 37.46875 C 2.246094 46.875 5.914062 55.726562 12.566406 62.375 C 19.214844 69.023438 28.066406 72.695312 37.46875 72.695312 C 46.875 72.695312 55.726562 69.023438 62.375 62.375 C 69.023438 55.726562 72.695312 46.875 72.695312 37.46875 C 72.695312 28.066406 69.023438 19.214844 62.375 12.566406 C 55.726562 5.914062 46.875 2.246094 37.46875 2.246094 Z M 37.46875 2.246094 " fill-opacity="1" fill-rule="nonzero"/><path fill="rgb(100%, 39.608765%, 0%)" d="M 48.078125 40.417969 C 44.46875 40.417969 41.070312 39.015625 38.519531 36.460938 C 35.964844 33.910156 34.558594 30.511719 34.558594 26.902344 C 34.558594 23.292969 35.964844 19.894531 38.519531 17.34375 C 41.070312 14.789062 44.46875 13.382812 48.078125 13.382812 C 51.6875 13.382812 55.085938 14.789062 57.636719 17.34375 C 60.191406 19.898438 61.597656 23.292969 61.597656 26.902344 C 61.597656 30.511719 60.191406 33.910156 57.636719 36.460938 C 55.085938 39.015625 51.6875 40.417969 48.078125 40.417969 Z M 48.078125 14.191406 C 44.683594 14.191406 41.492188 15.515625 39.09375 17.914062 C 36.691406 20.316406 35.371094 23.507812 35.371094 26.902344 C 35.371094 30.292969 36.691406 33.488281 39.09375 35.886719 C 41.492188 38.285156 44.683594 39.609375 48.078125 39.609375 C 51.46875 39.609375 54.664062 38.285156 57.0625 35.886719 C 59.460938 33.488281 60.785156 30.292969 60.785156 26.902344 C 60.785156 23.507812 59.460938 20.316406 57.0625 17.914062 C 54.664062 15.515625 51.46875 14.191406 48.078125 14.191406 Z M 48.078125 14.191406 " fill-opacity="1" fill-rule="nonzero"/></svg>